<?xml version="1.0" standalone="no"?>
<!DOCTYPE svg PUBLIC "-//W3C//DTD SVG 20010904//EN"
 "http://www.w3.org/TR/2001/REC-SVG-20010904/DTD/svg10.dtd">
<svg version="1.0" xmlns="http://www.w3.org/2000/svg"
 width="1024.000000pt" height="683.000000pt" viewBox="0 0 1024.000000 683.000000"
 preserveAspectRatio="xMidYMid meet">
<metadata>
Created by potrace 1.15, written by Peter Selinger 2001-2017
</metadata>
<g transform="translate(0.000000,683.000000) scale(0.100000,-0.100000)"
fill="#000000" stroke="none">
<path d="M0 6319 c0 -465 2 -514 17 -540 10 -16 23 -29 30 -29 7 0 13 -8 13
-17 0 -13 -3 -14 -12 -5 -7 7 -20 12 -31 12 -14 0 -18 -6 -15 -27 2 -21 8 -27
23 -25 11 1 33 3 48 4 15 0 30 5 33 10 3 4 10 8 15 8 6 0 7 -4 4 -10 -3 -5 7
-24 23 -41 22 -23 34 -30 50 -25 13 4 19 13 15 22 -7 19 10 18 38 -4 27 -21
60 -25 71 -8 5 8 8 7 8 -1 0 -8 8 -5 20 7 15 15 29 18 67 15 80 -8 102 -15
109 -37 13 -41 -45 -54 -92 -21 -20 14 -35 19 -44 13 -8 -5 -19 -6 -25 -4 -5
3 -2 -1 8 -9 19 -16 23 -37 5 -37 -6 0 -36 8 -65 17 -61 19 -73 13 -73 -39 0
-40 -45 -71 -90 -62 -58 11 -124 12 -137 2 -10 -8 -13 -106 -13 -428 l0 -418
71 -16 c39 -9 88 -16 109 -16 20 0 39 -3 43 -6 11 -11 208 -19 342 -14 99 3
98 4 85 -20 -8 -15 -8 -20 2 -22 7 0 20 -2 28 -3 8 -1 25 5 38 12 13 8 29 12
35 10 7 -2 18 2 25 10 19 19 33 16 25 -4 -6 -16 -5 -16 10 -5 9 8 21 11 26 8
6 -4 28 5 50 19 40 25 65 33 109 34 13 1 22 7 22 16 0 13 18 18 46 14 4 0 11
5 15 13 18 27 9 -27 -9 -57 -26 -45 -28 -91 -3 -98 22 -5 64 19 56 34 -3 5 1
6 10 3 25 -10 75 16 75 38 0 10 -4 17 -9 14 -12 -8 -25 23 -22 51 2 17 -2 21
-13 17 -12 -5 -16 0 -16 19 0 17 -7 28 -20 32 -23 7 -26 41 -5 68 7 11 17 36
20 58 4 21 11 39 17 39 13 0 48 39 48 52 0 6 9 21 20 35 11 14 18 29 15 32 -2
4 -30 13 -62 20 -91 19 -92 20 -108 58 -20 48 -20 50 15 57 26 5 30 10 30 37
0 27 -3 30 -27 29 -16 -1 -32 -1 -38 1 -5 1 -28 3 -50 3 -38 1 -40 3 -40 33 0
47 -13 52 -46 15 -16 -17 -33 -32 -37 -32 -5 0 -17 -9 -26 -19 -22 -24 -50
-17 -36 7 5 10 20 29 34 44 14 15 26 33 26 40 1 17 25 48 38 48 15 0 20 30 9
63 -6 19 -16 27 -33 27 -27 0 -28 3 -14 30 8 15 6 21 -7 29 -15 9 -16 12 -4
20 7 5 10 14 7 20 -12 18 -23 13 -30 -14 -11 -44 -29 -29 -22 17 8 51 9 52 36
43 13 -4 19 -12 16 -21 -9 -23 25 -30 40 -9 8 11 14 13 14 6 0 -16 68 -44 92
-38 15 4 18 1 13 -14 -4 -12 -1 -20 7 -21 7 0 18 -2 23 -2 6 -1 16 -5 23 -9
11 -7 14 -2 14 23 1 3 -2 18 -6 33 -6 26 -5 27 13 17 13 -6 18 -16 14 -26 -4
-11 -1 -15 13 -13 21 3 54 -12 78 -37 21 -20 20 -29 -1 -31 -10 -1 -27 -4 -38
-6 -11 -3 -22 -6 -25 -6 -3 -1 7 -13 22 -29 15 -15 44 -44 64 -66 31 -31 39
-35 44 -21 5 14 9 13 33 -9 15 -14 23 -28 17 -31 -14 -9 -3 -25 17 -25 10 0
13 6 9 16 -5 14 -4 15 9 4 8 -7 15 -18 15 -26 0 -13 37 -30 54 -25 5 1 13 -4
17 -11 6 -9 10 -8 15 5 3 9 11 17 16 17 6 0 7 -7 4 -16 -4 -9 -2 -13 5 -8 6 4
16 0 21 -7 7 -10 8 -8 3 8 -3 13 -1 24 7 29 7 4 10 4 6 0 -9 -11 23 -45 37
-39 7 2 16 -1 20 -6 3 -6 11 -9 16 -6 5 4 9 -1 9 -9 0 -12 5 -14 26 -6 14 6
39 10 55 10 21 0 28 4 23 13 -4 6 1 5 11 -4 13 -13 15 -21 6 -37 -12 -23 0
-38 21 -26 6 4 8 3 5 -3 -4 -6 7 -13 25 -17 47 -9 97 -51 91 -76 -3 -11 -13
-20 -22 -21 -11 0 -9 -4 7 -12 17 -8 25 -8 30 0 7 10 33 17 59 14 7 0 10 -8 7
-16 -4 -8 -10 -12 -15 -9 -5 3 -9 -2 -9 -11 0 -9 4 -13 10 -10 6 3 7 -1 4 -9
-6 -15 -17 -20 -40 -17 -26 3 -22 -30 6 -59 16 -16 25 -30 21 -30 -5 0 -8 -15
-7 -32 4 -47 5 -48 20 -48 19 0 63 37 54 46 -4 4 -14 1 -23 -6 -22 -19 -18 4
5 25 15 13 23 15 33 7 9 -8 17 -8 23 -2 6 6 22 11 37 12 15 1 27 8 27 14 0 6
12 14 26 17 22 4 25 2 20 -17 -6 -24 -22 -24 162 0 34 5 41 9 32 20 -9 10 -7
19 7 38 17 24 32 30 60 27 7 -1 22 3 34 9 27 15 35 7 14 -14 -15 -15 -11 -16
49 -16 45 0 69 -5 80 -16 9 -8 16 -12 16 -8 0 3 6 1 14 -5 11 -9 15 -9 19 1 3
8 6 6 6 -6 1 -15 6 -17 34 -11 46 10 110 7 117 -5 4 -7 11 -6 20 5 7 8 19 15
26 15 8 0 14 5 14 10 0 6 11 10 25 10 14 0 25 -4 25 -9 0 -9 66 -8 76 1 3 4
18 2 33 -3 14 -6 44 -12 66 -15 22 -2 51 -9 64 -16 19 -10 25 -10 28 0 6 17
23 15 23 -3 0 -8 7 -15 16 -15 8 0 13 4 10 9 -3 5 1 14 9 21 15 13 10 35 -6
25 -5 -4 -9 -1 -9 4 0 6 -11 11 -25 11 -14 0 -25 4 -25 9 0 4 -18 20 -41 35
-22 15 -39 32 -37 38 2 6 25 17 51 25 43 12 72 33 47 33 -6 0 -9 4 -6 8 6 10
-43 39 -64 37 -8 0 -17 2 -20 5 -12 15 -92 50 -101 45 -5 -4 -9 5 -9 18 0 19
-5 24 -23 23 -13 0 -39 13 -59 30 -31 27 -35 36 -32 72 3 53 9 62 43 62 15 0
32 5 38 11 14 14 88 2 104 -17 6 -8 21 -14 33 -14 17 0 18 2 6 10 -12 8 -9 10
13 10 23 0 47 -9 77 -28 2 -2 -1 -7 -8 -11 -20 -12 -4 -38 30 -50 39 -14 39
-14 30 7 -21 51 -56 100 -68 95 -8 -3 -14 -1 -14 4 0 5 -22 15 -48 22 -51 13
-122 55 -122 71 0 6 14 10 31 10 59 0 118 55 90 83 -17 17 -13 25 19 32 16 4
33 11 36 17 5 7 -1 9 -15 5 -13 -3 -20 -3 -17 0 3 4 -16 18 -42 32 -97 52
-162 99 -162 117 0 7 -12 23 -27 36 -16 13 -44 44 -63 70 -45 61 -92 81 -196
83 -53 1 -88 7 -105 18 -13 9 -46 23 -74 32 -71 24 -80 33 -54 56 24 21 22 25
-31 80 -14 14 -26 36 -27 48 -1 17 4 21 30 21 22 0 36 7 45 21 15 24 12 29
-17 32 -11 1 -21 5 -21 9 0 4 26 6 58 4 58 -5 95 5 73 18 -15 10 -14 27 2 24
6 -2 11 2 10 7 -1 6 23 11 55 12 47 1 60 6 78 27 12 13 24 22 27 20 3 -3 8 4
12 16 5 15 13 20 26 17 14 -4 19 0 19 13 0 10 -3 20 -7 23 -5 2 -3 3 4 1 18
-4 24 8 12 23 -6 7 -9 26 -6 41 5 22 1 30 -16 37 -12 6 -22 17 -22 25 0 8 -4
15 -10 16 -5 0 -19 4 -30 8 -11 5 -27 10 -35 14 -8 3 -18 4 -22 4 -5 -1 -8 5
-8 13 0 8 -5 15 -11 15 -9 0 -120 86 -182 141 -10 9 -32 20 -49 23 -17 3 -554
6 -1194 6 l-1164 0 0 -511z"/>
<path d="M4210 6812 c-14 -9 -32 -25 -40 -36 -36 -46 -95 -97 -103 -89 -3 2
-16 -3 -29 -11 -14 -9 -28 -13 -31 -9 -4 3 -7 -1 -7 -10 0 -10 -8 -17 -19 -17
-11 0 -36 -16 -57 -35 -28 -27 -35 -38 -26 -47 9 -9 8 -16 -4 -29 -21 -24 -2
-63 27 -56 17 5 20 1 17 -21 -2 -15 -9 -26 -15 -24 -15 2 -17 -24 -3 -33 6 -4
9 -12 8 -18 -4 -15 29 -48 70 -72 17 -10 29 -22 26 -27 -3 -4 0 -8 5 -8 6 0
11 -4 11 -10 0 -5 -6 -10 -14 -10 -32 0 -49 -118 -25 -177 7 -18 17 -33 21
-33 4 0 6 -6 4 -12 -1 -7 -1 -10 1 -5 8 13 22 7 28 -13 3 -11 15 -20 25 -20
10 0 21 -4 24 -9 4 -5 19 -3 36 6 31 15 90 10 90 -8 0 -5 9 -9 20 -9 11 0 20
-7 20 -16 0 -8 5 -12 10 -9 6 4 10 -10 10 -35 0 -25 4 -39 10 -35 6 3 10 2 10
-3 0 -5 20 -17 44 -26 55 -21 73 -40 57 -60 -14 -17 -4 -47 14 -40 7 3 17 -1
21 -8 6 -9 10 -6 15 12 4 15 7 -5 8 -52 1 -45 -3 -79 -9 -79 -5 -1 -16 -2 -22
-3 -24 -2 -20 -34 4 -38 12 -2 24 -10 26 -19 4 -21 -28 -34 -40 -17 -5 9 -8 6
-8 -9 0 -16 8 -25 24 -29 30 -7 28 -40 -3 -38 -28 2 -29 -33 -1 -38 27 -4 31
-22 6 -26 -11 -2 -16 0 -12 7 4 5 -6 4 -21 -4 -25 -13 -28 -21 -28 -62 l0 -47
-62 -20 -63 -20 0 -52 c0 -51 -1 -53 -35 -65 l-35 -13 -1 -191 c0 -104 -2
-226 -4 -270 -2 -44 -6 -177 -10 -297 -5 -198 -4 -218 12 -234 13 -12 14 -19
5 -22 -15 -5 -16 -32 -1 -32 6 0 3 -7 -5 -16 -9 -9 -16 -33 -16 -57 0 -48 -9
-66 -30 -65 -39 3 -61 -3 -55 -13 4 -6 14 -8 22 -5 8 3 11 1 8 -4 -3 -6 -13
-10 -22 -10 -12 0 -13 -3 -4 -14 8 -10 9 -16 1 -21 -5 -3 -10 0 -10 8 0 21
-72 83 -112 96 -57 19 -72 84 -29 119 14 11 13 12 -6 3 -18 -9 -24 -7 -37 11
-9 12 -16 36 -17 53 l0 30 -11 -25 c-6 -14 -15 -36 -20 -50 l-10 -24 -19 24
c-13 17 -19 42 -19 77 0 28 -4 55 -10 58 -6 4 -10 -12 -10 -39 0 -25 -4 -46
-10 -46 -5 0 -10 2 -10 4 0 10 -32 291 -44 396 -8 63 -18 151 -22 195 -5 44
-10 67 -12 50 -6 -57 -32 -220 -66 -419 -36 -207 -55 -263 -57 -165 -1 45 -3
49 -9 24 -4 -16 -8 -50 -9 -74 -1 -38 -3 -42 -13 -29 -13 17 -32 21 -80 19
-22 -1 -28 -6 -28 -24 0 -20 -5 -23 -40 -24 -22 -1 -45 -5 -50 -8 -6 -3 -10
-30 -10 -59 l0 -53 -50 -10 c-34 -7 -53 -7 -61 1 -9 8 -10 8 -5 -1 5 -9 0 -13
-13 -13 -13 0 -21 -8 -23 -22 -2 -19 -12 -25 -58 -33 -35 -6 -64 -19 -79 -34
-22 -22 -27 -23 -115 -16 -50 4 -102 8 -116 9 -14 1 -31 5 -37 9 -15 9 -46 -5
-41 -19 1 -5 -12 -10 -29 -12 -19 -2 -33 1 -33 7 0 6 -12 11 -26 11 -25 0 -25
0 -23 76 2 57 -1 78 -12 84 -8 4 -61 13 -119 19 -58 7 -121 14 -140 16 -19 2
-59 9 -88 15 -60 13 -90 8 -52 -8 l25 -11 -26 0 c-19 -1 -28 5 -32 20 -5 19
-7 20 -36 5 -35 -18 -61 -21 -61 -5 0 6 9 8 23 4 18 -6 20 -5 10 6 -7 7 -32
15 -55 18 -24 3 -43 11 -44 16 0 6 -4 18 -9 28 -4 10 -5 35 -2 57 4 31 1 39
-13 43 -18 4 -30 45 -30 101 0 17 -4 36 -8 42 -4 7 -40 17 -81 23 -41 6 -77
14 -81 16 -4 2 -54 13 -111 24 -242 45 -355 54 -398 32 -12 -7 -29 -10 -36 -7
-7 2 -23 -4 -36 -15 -12 -10 -26 -19 -31 -19 -4 0 -36 -13 -70 -28 -35 -15
-116 -46 -181 -67 -64 -21 -122 -42 -127 -45 -6 -4 -13 -49 -16 -101 -4 -67
-9 -96 -20 -102 -8 -5 -14 -24 -14 -47 l0 -40 -45 0 c-42 0 -45 -2 -46 -27 -1
-16 -1 -31 0 -35 0 -5 -6 -8 -15 -8 -8 0 -12 -4 -9 -10 4 -6 -2 -7 -17 -1 -13
4 -28 17 -33 28 -6 11 -16 18 -23 15 -6 -2 -12 1 -12 7 0 6 -7 11 -15 11 -8 0
-15 4 -15 10 0 5 7 7 15 4 8 -4 15 -2 15 4 0 5 -9 12 -20 15 -12 3 -20 0 -20
-8 0 -7 -7 -18 -15 -25 -13 -11 -15 -8 -15 19 0 43 -17 39 -31 -9 -10 -32 -18
-40 -43 -46 -17 -4 -38 -11 -48 -17 -26 -17 -35 1 -15 34 9 17 17 37 17 45 0
12 10 18 30 16 3 0 10 15 16 34 9 27 8 34 -2 34 -8 0 -14 -8 -14 -17 0 -23
-17 -49 -25 -41 -4 3 1 20 9 37 9 17 17 34 19 38 1 4 13 6 27 4 21 -3 22 -1
11 12 -7 9 -20 13 -28 10 -9 -4 -21 1 -29 12 -14 18 -15 18 -32 -1 -11 -11
-22 -26 -25 -34 -3 -10 -6 -7 -6 7 -1 12 5 26 13 30 12 7 12 11 1 26 -7 10
-16 18 -19 18 -32 -4 -46 1 -46 17 0 13 -2 14 -9 4 -4 -8 -12 -14 -17 -15 -5
-1 -9 -12 -9 -24 -1 -12 -11 -31 -23 -41 -12 -10 -18 -22 -14 -26 4 -4 3 -7
-3 -6 -35 7 -37 0 -16 -55 5 -11 13 -35 19 -53 l11 -33 -35 4 c-19 3 -34 1
-34 -5 0 -23 -18 5 -24 37 -5 23 -19 44 -41 62 -19 16 -35 36 -35 46 0 9 -4
17 -10 17 -15 0 -13 -233 2 -248 9 -9 9 -12 0 -12 -9 0 -12 -439 -12 -1945 l0
-1945 5120 0 5120 0 0 1018 c0 958 -1 1018 -17 1028 -10 6 -27 8 -38 4 -11 -4
-28 -3 -38 2 -12 6 -19 5 -23 -7 -3 -8 -10 -15 -16 -15 -5 0 -6 5 -3 10 3 6
-3 10 -14 10 -12 0 -21 -6 -21 -12 0 -10 -3 -9 -9 1 -6 9 -20 11 -50 6 -27 -4
-41 -3 -41 4 0 18 -57 13 -64 -6 -6 -14 -9 -15 -15 -4 -5 7 -19 13 -32 12 -57
-4 -169 -5 -229 -2 -57 3 -66 6 -67 22 -1 13 2 17 10 12 8 -4 7 -1 -1 9 -11
14 -10 16 5 14 11 -2 17 -10 15 -21 -2 -10 1 -14 7 -10 20 12 11 35 -16 41
-34 8 -55 23 -47 35 3 5 -20 9 -50 9 -30 0 -57 4 -61 9 -3 5 -17 8 -31 5 -16
-3 -23 -1 -19 6 3 6 -3 10 -14 10 -23 0 -27 10 -10 27 8 8 5 13 -10 18 -12 3
-21 11 -21 16 0 6 4 8 9 5 5 -4 11 -1 13 5 3 8 63 15 173 20 224 12 215 12
255 7 19 -3 44 1 55 8 29 18 241 23 230 5 -7 -12 99 -27 163 -23 20 2 22 7 22
63 l0 62 -77 -7 c-171 -16 -428 -17 -602 -1 -97 8 -195 15 -218 15 -41 0 -57
13 -30 23 9 4 9 6 0 6 -7 1 -13 12 -13 26 0 19 4 23 18 19 16 -5 16 -5 0 9
-10 8 -18 18 -18 23 0 11 261 6 275 -6 5 -4 64 -8 130 -8 77 0 109 3 90 8 -19
5 24 8 117 9 165 1 205 -7 188 -39 -6 -11 -17 -20 -25 -20 -8 0 -15 -5 -15
-11 0 -6 9 -9 19 -6 11 2 41 1 68 -4 69 -14 93 -5 93 30 0 16 -6 32 -12 34
-10 4 -10 6 0 6 9 1 12 88 12 399 l0 398 -32 3 c-18 2 -43 4 -56 3 -19 0 -23
5 -21 27 4 29 -8 54 -21 46 -5 -3 -7 -14 -5 -25 3 -16 -2 -20 -26 -20 -29 0
-41 22 -19 35 6 3 10 15 10 25 0 14 -10 21 -37 26 -21 3 -66 12 -101 20 -35 8
-84 14 -110 14 -42 0 -44 1 -26 14 28 21 11 30 -24 12 -40 -21 -90 -12 -94 17
-4 28 -28 34 -35 9 -5 -20 -6 -20 -56 -5 -29 9 -69 15 -89 14 -22 -1 -38 3
-38 9 0 6 4 9 9 6 10 -7 155 19 172 30 8 4 7 9 -2 15 -16 10 -108 1 -125 -12
-6 -5 -55 -11 -110 -13 -54 -2 -109 -7 -121 -11 -22 -7 -23 -5 -23 52 l0 59
106 1 c93 1 112 4 156 27 28 15 66 26 88 26 43 0 129 35 137 56 3 8 11 14 19
14 8 0 14 5 14 10 0 6 8 10 18 10 27 1 -28 29 -58 30 -14 0 -40 -9 -58 -20
-18 -11 -39 -20 -48 -20 -8 0 -33 -9 -54 -20 -43 -22 -138 -46 -214 -54 -27
-3 -56 -12 -64 -20 -13 -13 -17 -12 -32 7 -15 19 -19 63 -29 317 -12 344 -13
452 -1 445 4 -3 10 2 14 10 7 19 26 19 26 0 0 -13 3 -13 20 -3 11 7 20 17 20
23 0 13 51 35 87 38 36 3 42 34 13 65 -29 31 -10 52 38 41 19 -4 41 -5 48 -2
8 3 14 1 14 -5 0 -5 -7 -13 -16 -16 -8 -3 -13 -10 -10 -14 3 -5 -1 -18 -9 -28
-8 -10 -15 -22 -15 -25 0 -6 44 -21 46 -16 0 1 9 -4 18 -12 14 -12 18 -12 29
3 15 20 113 24 147 6 25 -13 206 -24 223 -13 6 4 23 8 36 9 23 3 45 11 92 34
9 5 22 5 29 0 14 -9 50 -2 50 10 0 4 18 8 40 8 28 1 39 -3 34 -11 -3 -7 1 -4
9 6 12 14 15 45 14 135 -2 113 -3 117 -24 120 -13 2 -23 10 -23 17 0 18 17 28
25 15 16 -25 25 -5 25 54 0 56 -3 67 -22 81 -19 13 -21 17 -8 25 8 5 18 6 22
4 4 -3 8 402 8 901 l0 905 -3002 -1 c-2775 0 -3005 -2 -3028 -17z m274 -40 c6
-5 38 -17 71 -27 69 -20 100 -42 85 -60 -5 -6 -8 -14 -5 -16 2 -3 -17 -6 -43
-7 -127 -4 -188 -8 -199 -15 -7 -4 -22 -5 -35 -2 -22 6 -23 9 -18 71 4 57 8
68 29 79 21 11 32 10 65 -1 21 -8 44 -18 50 -22z m29 -343 c13 -12 16 -24 11
-43 -3 -14 -10 -26 -15 -26 -5 0 -12 -8 -16 -17 -3 -10 -20 -30 -36 -45 -17
-16 -27 -28 -23 -28 8 0 -43 -50 -53 -51 -146 -20 -167 -15 -167 41 0 26 4 40
12 40 7 0 17 7 22 16 9 16 81 37 120 35 12 0 22 3 22 8 0 4 13 26 29 48 32 44
62 51 94 22z m363 -595 c8 22 42 12 70 -20 12 -13 31 -24 42 -24 11 0 24 -4
27 -10 3 -5 14 -10 24 -10 9 0 27 -11 39 -25 12 -14 29 -25 37 -25 8 0 15 -6
15 -14 0 -9 -14 -15 -41 -18 -35 -3 -45 1 -72 28 l-32 32 -75 -34 c-41 -19
-83 -40 -93 -45 -27 -15 -97 -22 -97 -10 0 6 -16 17 -36 26 -20 8 -38 24 -41
35 -3 11 -10 20 -16 20 -6 0 5 14 23 30 19 17 41 28 49 26 46 -13 100 -16 105
-7 4 6 13 8 21 4 11 -4 15 3 15 28 1 32 2 33 15 15 13 -17 15 -18 21 -2z
m-334 -31 c7 -9 6 -14 -6 -19 -9 -3 -16 -10 -16 -16 0 -5 6 -6 13 -2 8 6 8 3
-2 -9 -16 -21 -8 -47 16 -47 10 0 33 -9 51 -20 18 -11 37 -18 43 -15 5 4 9 0
9 -8 0 -8 9 -22 20 -32 21 -19 27 -45 10 -45 -5 0 -10 -11 -10 -25 0 -18 5
-25 19 -25 12 0 18 -7 17 -17 -1 -14 17 -22 84 -39 47 -12 88 -20 92 -18 5 3
8 -1 8 -9 0 -7 12 -19 26 -26 21 -9 25 -16 19 -40 -5 -24 -1 -32 25 -51 16
-12 28 -25 26 -29 -3 -4 1 -20 9 -34 15 -29 15 -29 15 -52 0 -8 12 -18 28 -21
36 -9 54 -24 48 -41 -6 -15 20 -18 29 -3 4 6 10 8 15 5 10 -6 92 -22 152 -30
24 -3 79 -10 123 -16 44 -6 91 -12 105 -13 14 -2 37 -10 51 -20 15 -9 45 -18
69 -21 24 -2 46 -8 51 -12 4 -4 4 -29 0 -55 -6 -34 -4 -48 4 -48 20 0 24 11
15 35 -7 20 -5 25 11 30 27 9 31 3 32 -47 1 -37 -2 -43 -20 -43 -11 -1 -28 -6
-36 -13 -9 -7 -21 -12 -29 -11 -7 1 -39 -1 -71 -5 -39 -6 -62 -5 -71 3 -16 14
-96 12 -96 -2 0 -5 7 -7 15 -3 8 3 25 1 37 -4 16 -6 18 -9 7 -9 -9 -1 -23 -8
-30 -18 -13 -15 -12 -15 9 -4 12 6 27 9 33 5 6 -3 62 -7 126 -8 126 -3 135 -8
131 -61 -3 -24 -8 -30 -28 -30 -42 -1 -110 -17 -110 -26 0 -5 10 -14 23 -20
12 -6 30 -20 40 -30 10 -11 25 -19 35 -19 15 0 15 2 2 10 -13 9 -13 11 0 20 8
5 20 8 25 7 6 -2 11 -72 13 -176 2 -161 1 -172 -15 -167 -10 3 -40 10 -68 17
-27 7 -54 15 -60 19 -5 4 -36 7 -67 6 l-58 -2 0 152 c0 146 -1 154 -21 165
-17 9 -19 13 -8 19 7 5 18 6 24 3 5 -4 7 -3 3 2 -4 4 0 14 8 22 20 21 14 35
-24 50 -30 12 -32 12 -32 -8 0 -20 -1 -21 -24 -5 -17 11 -32 13 -47 7 -25 -9
-26 -7 36 -57 19 -14 17 -15 -29 -10 -27 3 -64 6 -82 6 -26 0 -33 4 -36 23 -2
17 -10 22 -33 22 -25 0 -31 -4 -33 -27 -3 -24 -9 -28 -56 -38 -49 -10 -54 -14
-60 -43 -6 -26 -17 -325 -16 -416 0 -13 -3 -21 -6 -18 -4 4 -6 62 -5 130 l2
124 -45 13 c-25 7 -50 18 -56 25 -11 13 -18 12 -159 -21 l-24 -5 7 304 6 304
-32 9 c-33 10 -33 10 -30 65 3 50 2 56 -21 66 -14 7 -42 15 -62 19 -45 8 -51
22 -35 81 12 41 12 47 -5 59 -10 7 -22 11 -26 8 -5 -3 -9 3 -9 12 0 10 -3 14
-6 11 -10 -10 -44 12 -44 27 0 8 11 17 25 20 25 6 35 39 15 51 -6 3 -7 -1 -4
-9 7 -18 3 -19 -20 -10 -26 10 -18 29 16 42 33 12 30 27 -7 34 -16 3 -20 11
-20 48 0 25 3 65 6 88 5 34 3 45 -9 50 -9 3 -18 0 -20 -6 -2 -7 -8 -10 -13 -7
-5 4 -3 12 4 20 15 17 54 15 69 -2z m2433 -83 c22 0 34 -4 30 -10 -3 -6 6 -5
21 2 22 10 28 10 32 0 2 -6 8 -12 13 -12 6 0 7 5 3 12 -5 8 -2 9 12 4 10 -5
25 -9 32 -9 6 0 12 -4 12 -9 0 -8 -22 -12 -47 -9 -6 1 -14 -3 -18 -9 -4 -6 6
-10 24 -10 17 0 31 -4 31 -10 0 -5 -9 -10 -20 -10 -11 0 -20 -4 -20 -9 0 -5
-13 -14 -30 -21 -30 -12 -41 -30 -18 -30 23 0 -1 -11 -32 -15 -17 -2 -40 1
-50 7 -15 10 -23 9 -38 -5 -10 -9 -24 -17 -31 -17 -7 0 -10 -4 -7 -9 10 -16
-21 -20 -48 -6 -34 18 -94 1 -75 -21 14 -17 3 -34 -22 -34 -10 0 -19 -4 -19
-9 0 -6 -20 -13 -45 -17 -25 -3 -45 -8 -45 -11 0 -10 30 -33 44 -33 16 0 31
-18 23 -26 -3 -3 -14 -1 -25 5 -10 6 -35 8 -55 4 -32 -5 -34 -7 -24 -24 9 -14
9 -21 -1 -31 -13 -13 -17 -14 -47 -17 -22 -2 -18 -38 4 -51 25 -13 31 -13 31
0 0 6 10 26 23 45 23 36 47 46 47 20 0 -9 -6 -12 -17 -8 -11 4 -14 3 -9 -6 4
-6 9 -28 11 -47 2 -27 0 -34 -10 -30 -9 3 -12 0 -9 -8 3 -9 -4 -12 -26 -11
-36 2 -49 -17 -29 -41 10 -12 10 -15 -1 -12 -26 6 -22 -31 5 -44 20 -9 32 -8
58 4 31 14 48 15 110 5 15 -2 30 0 33 4 7 13 85 11 123 -2 25 -9 38 -8 65 5
19 9 39 16 45 16 6 0 11 5 11 10 0 6 6 10 14 10 7 0 40 12 72 26 86 39 122 45
160 29 22 -9 57 -12 112 -8 74 5 81 4 91 -16 7 -11 18 -21 26 -21 8 0 15 -7
15 -16 0 -13 6 -15 28 -9 15 4 53 8 85 10 72 5 118 14 135 28 9 7 16 7 20 1 4
-5 21 -9 37 -8 17 2 77 5 135 7 165 8 338 24 354 34 25 16 58 18 133 9 23 -3
45 -1 48 4 3 6 22 10 41 10 19 0 34 5 34 11 0 5 4 8 9 4 5 -3 12 -1 15 4 3 5
16 7 28 3 16 -4 19 -2 13 9 -8 12 -6 12 8 0 9 -7 17 -10 17 -6 0 5 3 6 6 3 3
-4 -2 -18 -11 -31 -15 -24 -15 -27 4 -46 25 -25 76 -38 164 -43 76 -4 79 0 45
58 -31 52 -2 40 38 -17 29 -41 34 -44 78 -43 45 0 46 0 46 -30 0 -17 -4 -37
-9 -45 -7 -10 -5 -18 5 -25 18 -14 29 -102 19 -153 l-7 -38 -18 50 c-24 71
-89 209 -95 203 -3 -3 6 -35 20 -71 30 -81 40 -171 20 -187 -13 -11 -114 -39
-142 -40 -18 0 -16 25 4 63 27 50 25 67 -8 67 -16 0 -29 -4 -29 -9 0 -5 -13
-14 -30 -21 -23 -10 -28 -16 -21 -28 11 -20 -4 -52 -24 -52 -8 0 -15 -4 -15
-9 0 -10 -44 -19 -140 -27 -36 -4 -68 -12 -72 -18 -6 -8 -8 -8 -8 0 0 12 -20
11 -80 -4 -19 -5 -46 -5 -60 -2 -20 5 -24 12 -22 33 2 24 -1 27 -27 27 -36 0
-44 -18 -31 -77 6 -25 9 -47 8 -48 -2 -2 -48 -11 -103 -20 -106 -18 -115 -21
-115 -35 0 -5 12 -5 28 0 22 7 170 24 187 21 11 -2 5 -15 -7 -16 -7 -1 -38 -5
-68 -9 -30 -4 -74 -12 -98 -18 -42 -10 -43 -11 -38 -50 3 -25 0 -41 -7 -43 -7
-2 -55 -9 -109 -15 -118 -12 -128 -16 -128 -46 0 -27 -34 -34 -44 -9 -3 8 -12
12 -20 9 -11 -4 -12 -12 -4 -35 12 -36 11 -38 -38 -46 -23 -4 -46 -16 -57 -30
-23 -28 -37 -30 -37 -3 0 12 -9 22 -24 26 -24 6 -42 39 -25 48 5 2 4 3 -3 2
-7 -2 -12 -13 -11 -24 2 -14 -5 -23 -20 -28 -12 -4 -27 -14 -34 -23 -6 -9 -15
-16 -20 -17 -4 0 -26 -9 -48 -19 -22 -9 -50 -21 -63 -26 -22 -9 -23 -10 -6
-27 13 -12 33 -17 71 -16 29 0 53 -4 53 -9 0 -5 -7 -7 -15 -3 -20 7 -19 4 6
-25 17 -20 31 -24 82 -26 101 -4 159 -5 205 -3 40 2 44 4 40 25 -3 13 -1 30 3
37 6 9 8 7 8 -7 0 -11 5 -111 11 -223 7 -112 9 -210 6 -218 -5 -13 -8 -13 -29
0 -42 28 -427 15 -464 -15 -28 -24 -33 4 -33 189 0 103 -3 292 -7 420 l-6 232
-28 0 c-17 0 -34 8 -42 21 -20 28 -79 40 -140 28 -27 -5 -71 -9 -97 -9 l-48 0
-7 55 -6 55 -45 0 c-26 0 -44 5 -44 11 0 8 -35 10 -123 7 l-123 -5 -43 -44
c-40 -42 -42 -46 -37 -94 3 -27 6 -108 6 -179 l0 -129 25 23 c14 13 25 20 25
16 0 -5 -11 -17 -25 -28 -17 -13 -25 -29 -25 -50 0 -27 2 -29 18 -17 16 13 16
13 0 -7 -16 -18 -18 -42 -17 -178 1 -86 -1 -159 -4 -162 -5 -5 -21 978 -16
1041 6 96 2 113 -38 134 -21 11 -35 20 -30 21 4 0 -7 16 -24 35 -55 60 -59 68
-44 95 13 24 12 25 -53 47 -41 14 -70 19 -76 13 -17 -17 -36 40 -36 110 0 60
2 68 23 77 13 6 38 9 55 7 21 -2 40 3 52 14 12 9 24 17 28 17 4 1 25 7 47 14
38 13 38 14 15 23 -18 7 -21 11 -11 21 9 9 17 8 34 -3 47 -29 297 -1 297 34 0
18 52 45 101 52 24 4 50 10 58 14 8 4 29 1 47 -6 18 -8 50 -14 69 -14z m2284
-152 c13 -10 27 -16 31 -13 4 3 27 -2 50 -10 23 -8 55 -15 70 -15 38 0 55 -22
29 -38 -16 -10 -31 -8 -87 10 -57 20 -88 23 -207 23 -134 0 -143 -2 -221 -33
-44 -18 -113 -55 -154 -82 l-72 -50 -31 19 c-24 15 -35 17 -54 8 -19 -9 -27
-8 -34 4 -8 11 -12 11 -16 2 -7 -18 -20 -16 -20 2 0 10 10 15 28 15 15 0 40 5
56 11 l28 12 -25 7 c-21 7 -22 8 -5 9 13 1 7 7 -18 16 -76 26 -63 38 40 38 50
0 85 5 98 13 11 8 29 14 40 14 12 0 25 4 31 9 15 14 92 22 96 10 2 -7 17 -3
40 11 29 17 41 19 57 10 16 -8 35 -7 78 4 106 27 130 26 172 -6z m-3472 -70
c7 -1 14 -7 17 -15 7 -17 35 -17 50 0 6 7 10 11 9 9 -4 -8 22 -30 30 -25 4 2
7 -1 7 -6 0 -6 8 -11 17 -11 9 0 14 -3 10 -6 -3 -4 4 -15 16 -25 12 -11 18
-18 12 -17 -13 3 -85 -32 -85 -42 0 -13 -98 -10 -126 4 -24 13 -30 13 -52 -2
l-26 -17 32 -9 c32 -9 43 -30 20 -39 -7 -2 -10 -7 -7 -11 3 -4 17 -3 30 2 18
6 28 4 41 -9 15 -16 14 -17 -8 -22 -13 -2 -25 1 -28 7 -3 7 -8 6 -14 -3 -8
-12 -14 -12 -25 -3 -11 10 -25 7 -68 -13 l-54 -24 -53 26 c-49 24 -52 27 -37
42 11 12 35 16 88 16 65 0 72 2 72 20 0 16 -8 21 -35 23 -19 2 -40 8 -46 13
-6 5 -18 7 -27 3 -25 -9 -30 15 -8 42 12 15 21 32 21 38 1 23 30 48 62 55 27
6 93 5 165 -1z m3479 -64 c92 -26 92 -26 49 -140 -20 -54 -48 -124 -60 -155
-15 -35 -26 -88 -31 -142 -5 -63 -10 -87 -20 -87 -11 0 -14 19 -15 73 l-1 72
-12 -65 c-10 -56 -13 -62 -23 -45 -9 16 -13 17 -27 6 -19 -16 -22 -37 -3 -25
7 5 3 0 -10 -11 -31 -27 -29 -33 10 -38 l32 -4 -37 -1 c-36 -2 -37 -2 -47 51
-5 28 -15 84 -20 122 -6 39 -13 84 -17 102 l-6 31 64 7 c79 9 83 11 92 55 l6
35 -85 -9 c-76 -9 -85 -12 -86 -30 0 -20 -1 -20 -11 1 -10 20 -16 22 -73 16
-59 -5 -63 -4 -88 23 -34 36 -34 54 1 86 49 46 131 77 237 88 76 8 103 6 181
-16z m-1861 -3 c-5 -17 -1 -20 35 -19 22 0 40 4 40 8 0 14 107 10 143 -5 20
-8 51 -15 70 -15 18 0 38 -5 45 -12 7 -7 12 -8 12 -3 0 5 6 1 13 -8 10 -14 18
-15 45 -8 40 12 45 -9 7 -29 -19 -10 -31 -11 -49 -2 -15 6 -37 7 -60 2 -28 -6
-88 -1 -114 10 -2 1 -13 -5 -25 -13 -37 -24 -99 -30 -132 -13 -17 9 -25 16
-19 16 19 0 24 39 5 45 -9 3 -24 12 -35 20 -15 12 -16 16 -5 29 19 21 32 20
24 -3z m2300 -36 c33 0 66 4 73 9 9 5 18 2 26 -9 9 -12 21 -16 39 -13 15 3 27
1 27 -3 0 -5 7 -9 15 -9 9 0 15 -9 15 -25 0 -21 5 -25 33 -26 78 -3 91 -6 95
-17 2 -7 10 -12 18 -12 8 0 14 -5 14 -11 0 -5 5 -7 10 -4 6 3 10 -1 10 -9 0
-10 6 -13 15 -10 15 6 22 -11 8 -19 -5 -2 -2 -2 5 0 8 2 17 -7 20 -19 8 -30 7
-31 -30 -34 -43 -2 -109 -21 -145 -39 -15 -8 -34 -15 -41 -15 -7 0 -10 -4 -7
-10 3 -5 0 -7 -8 -4 -8 3 -19 -2 -26 -9 -9 -12 -6 -17 19 -25 16 -6 30 -8 30
-5 0 3 9 -2 20 -12 15 -13 17 -22 10 -36 -6 -10 -10 -20 -10 -22 0 -6 162 -1
200 7 33 7 36 5 46 -22 11 -30 11 -30 -32 -41 -65 -16 -84 -14 -84 9 0 17 -4
19 -17 11 -10 -5 -34 -9 -53 -9 -41 0 -60 -4 -79 -16 -8 -5 -16 -4 -21 4 -5 8
-24 11 -54 9 -38 -4 -47 -1 -52 14 -5 16 -15 18 -73 14 -38 -2 -73 -7 -80 -11
-7 -5 -15 -5 -18 -2 -3 3 -18 -4 -34 -15 -15 -10 -31 -19 -36 -18 -4 1 -10 0
-13 -1 -8 -3 -58 -9 -123 -16 -39 -4 -61 -12 -70 -24 -19 -28 -67 -31 -67 -4
0 9 -5 12 -12 8 -17 -10 -3 164 19 246 l18 65 97 31 c54 18 113 42 132 53 33
21 55 56 42 68 -7 7 35 39 47 35 4 -1 7 4 8 11 0 7 3 7 7 -3 5 -11 23 -15 67
-15z m-5398 -578 c-3 -8 -2 -29 3 -48 7 -31 8 -31 9 -7 1 31 4 34 54 43 41 8
50 -6 15 -23 -23 -10 -23 -11 -2 -11 18 -1 21 -7 20 -37 -1 -28 -6 -39 -23
-45 -14 -5 -23 -5 -23 2 0 6 -7 6 -20 -1 -11 -6 -20 -9 -20 -6 0 3 -13 1 -30
-4 l-30 -9 0 74 c0 62 3 74 18 78 30 8 34 7 29 -6z m4363 -129 c0 -4 -6 -8
-14 -8 -19 0 -28 -28 -16 -51 6 -11 8 -23 6 -28 -3 -5 2 -12 11 -15 12 -5 14
-9 5 -18 -17 -17 -15 -26 8 -33 11 -3 20 -10 20 -15 0 -13 -50 -20 -160 -25
-52 -2 -109 -8 -126 -13 -22 -7 -35 -7 -43 1 -13 13 -15 81 -2 73 5 -3 12 1
15 10 4 12 2 15 -9 10 -15 -5 -19 8 -16 46 1 10 -16 27 -43 43 -26 15 -46 31
-46 36 0 14 9 11 37 -11 14 -11 31 -20 38 -20 7 0 16 -10 20 -22 4 -14 8 -18
12 -10 2 6 11 12 19 12 8 0 14 5 14 10 0 28 37 45 100 47 36 1 81 6 100 11 27
7 39 5 53 -6 9 -8 17 -19 17 -24z m-4272 -449 c0 -134 -2 -161 -15 -166 -13
-5 -13 -7 2 -16 14 -8 15 -11 4 -18 -18 -11 -69 -11 -69 0 0 5 7 8 16 7 9 0
19 5 21 12 3 7 -1 13 -8 11 -51 -6 -52 16 -1 26 31 6 34 9 17 15 -11 4 -22 5
-25 1 -16 -19 -28 -5 -34 42 -6 43 -9 49 -18 34 -5 -11 -10 -34 -11 -53 -1
-19 -5 -34 -9 -34 -4 0 -11 0 -14 0 -6 0 -6 221 -1 227 3 2 58 11 80 12 9 1
17 5 17 10 0 10 -43 8 -77 -3 -17 -6 -23 -3 -23 8 0 9 8 16 18 17 30 1 72 9
95 19 12 5 25 9 29 9 3 1 6 -71 6 -160z m4329 110 c12 -12 5 -52 -7 -44 -5 3
-11 1 -14 -4 -11 -18 49 -22 87 -6 20 8 44 15 52 15 9 0 23 7 31 15 13 12 70
20 110 14 4 0 10 4 13 10 28 44 42 -76 57 -474 6 -166 5 -188 -8 -178 -11 10
-23 10 -54 1 -21 -7 -43 -12 -49 -12 -5 -1 -11 -10 -13 -21 -3 -16 -1 -17 7
-5 6 8 11 12 11 8 0 -4 11 -3 25 2 31 12 52 4 60 -21 4 -11 11 -17 16 -14 5 4
9 -1 9 -9 0 -9 -3 -15 -7 -14 -5 1 -21 -4 -36 -10 -16 -7 -32 -12 -37 -12 -5
0 -17 -8 -26 -17 -17 -17 -18 -17 -11 0 7 19 -8 24 -16 5 -3 -7 -6 5 -7 27 -4
178 -20 467 -26 476 -3 6 -19 8 -35 5 -16 -3 -29 -1 -29 4 0 6 -18 10 -41 10
-36 0 -42 3 -52 31 -8 21 -20 32 -39 36 -19 4 -28 12 -28 24 0 12 -7 19 -20
19 -13 0 -20 -7 -20 -20 0 -14 -7 -20 -24 -20 -48 0 -56 -9 -56 -65 l0 -52
-45 -13 c-25 -7 -47 -11 -49 -9 -2 2 -7 59 -11 126 l-7 122 26 7 c14 3 26 10
26 14 0 4 14 10 30 12 25 4 30 1 31 -16 1 -15 2 -17 6 -5 3 14 9 15 33 6 21
-8 39 -7 69 2 34 10 41 16 41 36 0 27 9 32 27 14z m-566 -58 c0 10 2 11 6 2 2
-7 18 -13 34 -13 29 0 42 -24 17 -32 -6 -2 -8 -10 -4 -16 4 -7 16 -10 26 -7
21 7 38 -13 18 -20 -7 -2 -33 -6 -58 -8 -25 -2 -46 -8 -47 -13 -1 -5 5 -8 14
-6 9 2 27 1 42 -3 l26 -7 -34 -14 c-18 -8 -37 -11 -43 -8 -5 4 -8 -4 -6 -17 3
-23 0 -24 -62 -26 l-65 -2 35 16 35 17 -34 5 c-28 5 -32 8 -20 18 8 6 30 16
49 22 33 10 31 10 -17 6 -33 -4 -53 -2 -53 5 0 5 7 10 16 10 9 0 14 6 11 13
-2 6 -10 11 -17 9 -6 -1 -10 3 -8 10 3 7 15 12 28 12 23 -2 63 30 52 41 -4 3
1 3 11 -1 10 -4 17 -1 17 6 0 10 3 10 15 0 12 -10 15 -10 16 1z m-2647 -158
c3 -4 6 30 6 75 0 81 3 89 28 74 16 -11 26 -490 10 -509 -6 -8 -8 -30 -4 -53
6 -36 4 -40 -14 -40 -17 0 -20 7 -22 43 -1 39 -1 39 -5 7 -6 -64 -13 -80 -32
-80 -11 0 -22 -6 -25 -12 -5 -10 -7 -10 -12 0 -3 6 -17 12 -30 12 l-24 0 0
249 c0 214 2 250 16 262 13 10 17 10 25 -2 6 -9 9 3 9 39 0 60 17 71 23 15 3
-32 4 -30 5 14 1 31 7 53 15 56 8 3 14 -17 18 -70 4 -41 9 -77 13 -80z m2730
-205 c6 -4 16 -6 22 -4 14 5 22 -45 14 -89 -5 -27 -9 -30 -52 -33 -39 -3 -48
0 -58 18 -6 11 -15 18 -21 14 -18 -11 -89 7 -89 22 0 9 5 12 12 8 7 -4 8 -3 4
4 -4 7 -14 12 -23 12 -9 0 -13 6 -10 14 3 7 0 19 -6 25 -8 8 -8 11 0 11 6 0
13 -5 15 -12 2 -6 21 -11 41 -10 20 1 37 -3 37 -8 0 -6 10 -10 23 -10 16 0 18
3 8 9 -10 6 -4 12 23 22 24 9 36 20 37 34 1 20 1 20 6 0 3 -11 10 -23 17 -27z
m-2294 -138 c0 -27 0 -53 0 -57 1 -5 -14 -11 -32 -14 l-33 -6 33 -2 c31 -1 33
-3 30 -33 -2 -27 -7 -32 -23 -30 -11 2 -36 5 -55 7 -19 2 -38 4 -42 4 -17 2
-7 21 11 21 30 0 39 21 29 66 -6 29 -14 41 -25 40 -9 0 -18 5 -20 12 -3 7 4
12 15 12 11 0 22 7 26 15 3 10 19 15 46 15 l40 0 0 -50z m-3328 -566 c4 -3 3
-14 -3 -25 -13 -25 8 -79 31 -79 11 -1 10 -4 -4 -15 -11 -8 -14 -15 -8 -15 7
0 12 -7 12 -15 0 -8 -4 -15 -8 -15 -11 0 -32 45 -32 67 0 14 -3 14 -19 -4 -10
-11 -21 -29 -24 -39 -3 -12 -5 -7 -6 13 0 18 -7 36 -15 40 -8 4 -14 17 -13 28
3 29 -31 31 -54 2 -17 -22 -27 -25 -82 -26 -34 0 -78 2 -97 6 -30 5 -32 7 -13
14 25 9 24 45 -1 43 -16 -2 -22 17 -9 30 8 8 332 -2 345 -10z m6033 -657 c0
-19 6 -21 73 -23 l74 -2 -4 29 c-4 23 -1 29 13 29 15 0 17 -6 12 -35 l-6 -35
67 0 66 0 0 37 c0 40 16 35 22 -7 3 -23 7 -25 65 -28 l61 -3 -1 -74 c-1 -40
-5 -77 -9 -81 -4 -4 -18 -2 -30 4 l-23 11 25 1 25 2 -26 8 c-29 8 -186 12
-210 5 -26 -8 -18 -85 11 -104 32 -21 49 -22 82 -5 16 8 35 13 41 11 7 -2 33
3 58 13 l46 17 7 -66 c11 -122 7 -321 -6 -321 -9 0 -8 -4 2 -10 13 -8 12 -10
-2 -10 -10 0 -18 5 -18 11 0 6 -6 9 -13 6 -8 -3 -20 -1 -28 4 -12 7 -12 9 1 9
29 0 -7 21 -38 22 -17 1 -33 7 -36 15 -8 19 -86 18 -86 -1 0 -8 -8 -17 -19
-21 -10 -3 -21 -18 -24 -33 -4 -17 -16 -33 -32 -40 -35 -16 -35 -16 -35 18 0
19 -7 34 -20 42 -11 7 -20 18 -20 25 0 7 -16 15 -35 19 -20 3 -34 9 -31 12 14
13 -56 34 -119 35 -38 0 -73 5 -77 11 -8 13 -47 15 -75 5 -13 -5 -51 -11 -85
-14 -35 -3 -75 -7 -90 -9 -15 -1 -25 1 -22 6 8 13 -57 7 -94 -9 -18 -8 -37
-11 -44 -7 -6 4 -8 3 -5 -3 4 -6 -3 -13 -14 -16 -12 -3 -18 -10 -14 -16 3 -6
1 -11 -4 -11 -6 0 -12 8 -12 18 -1 16 -2 16 -6 0 -5 -20 -24 -25 -20 -5 2 12
-3 13 -40 8 -16 -2 -16 -3 2 -11 15 -6 16 -9 4 -9 -23 -1 -143 -42 -149 -50
-3 -4 -26 -13 -52 -21 -59 -16 -62 -26 -5 -23 40 2 41 2 15 -9 -16 -7 -28 -15
-28 -18 0 -3 -16 -4 -36 -2 -27 3 -35 1 -29 -7 4 -7 17 -11 28 -10 36 2 47 0
47 -12 0 -6 -9 -8 -22 -4 -17 6 -20 4 -15 -9 4 -9 3 -15 -1 -15 -4 1 -14 1
-22 -1 -11 -1 -9 -4 5 -10 14 -7 3 -9 -39 -7 -37 1 -61 7 -64 15 -2 7 2 10 10
7 7 -3 33 -1 58 5 39 8 32 9 -47 7 -51 -2 -87 0 -80 5 6 4 24 8 40 8 15 0 27
5 27 10 0 6 13 10 30 10 23 0 28 3 23 17 -5 13 -2 15 15 11 26 -7 30 8 5 16
-15 4 -54 2 -73 -3 -3 -1 0 -5 7 -9 9 -6 6 -11 -8 -21 -12 -7 -18 -8 -14 -2 8
14 -10 14 -34 2 -20 -11 -64 -3 -56 9 3 5 15 6 27 2 14 -3 19 -2 14 6 -4 7
-28 13 -54 13 -26 1 -37 4 -24 6 24 5 45 34 34 49 -13 18 -70 32 -81 21 -8 -8
-11 -6 -11 6 0 12 -8 17 -26 17 -14 0 -23 4 -19 10 3 6 -2 10 -13 10 -10 0
-29 11 -42 25 -16 17 -27 22 -34 15 -14 -14 -29 -13 -24 2 2 6 20 17 39 24 29
11 30 13 10 13 -23 1 -22 3 15 38 21 20 34 38 29 40 -6 2 -17 8 -25 14 -11 8
-12 12 -2 16 7 2 19 11 26 19 8 8 19 14 25 14 5 0 16 8 23 18 27 38 73 45 318
47 203 2 240 0 275 -15 28 -13 83 -20 189 -25 82 -4 158 -9 169 -11 28 -5 34
-14 9 -14 -12 0 -26 -10 -33 -21 -10 -20 -9 -21 15 -17 17 4 25 1 23 -6 -2 -6
-9 -12 -15 -12 -25 -3 -27 -5 -12 -15 11 -8 12 -12 3 -16 -18 -7 -16 -23 2
-23 8 0 15 8 15 18 0 12 8 17 28 18 26 2 26 1 5 -9 -25 -11 -32 -33 -8 -24 8
4 17 2 21 -4 3 -6 12 -8 19 -5 15 5 65 -15 65 -26 0 -16 19 -7 25 12 3 11 13
20 21 20 11 0 13 6 9 20 -5 15 -2 20 12 20 10 0 29 7 42 16 18 13 20 18 10 25
-10 6 -11 9 -1 9 6 0 12 5 12 11 0 5 -3 8 -7 6 -5 -3 -17 -1 -28 3 -14 5 4 13
65 29 47 13 95 29 106 36 24 16 30 65 8 65 -8 0 -14 5 -14 10 0 6 5 10 11 10
5 0 8 4 4 9 -3 5 -41 13 -85 17 -44 3 -80 10 -80 14 0 4 -12 5 -27 2 -16 -3
-30 1 -37 9 -18 23 -64 49 -88 50 -23 0 -23 0 2 11 14 5 70 13 125 17 l100 6
3 39 c3 39 17 42 17 3z m-509 -81 c16 5 16 4 3 -5 -18 -11 -189 -26 -299 -25
-41 0 -61 -1 -45 -3 66 -9 40 -19 -47 -18 -165 2 -198 5 -198 16 0 6 22 10 58
9 31 -1 71 -1 87 1 25 2 22 3 -15 9 -40 6 -37 7 35 10 44 1 148 5 230 9 83 3
155 3 161 -2 6 -4 20 -5 30 -1z m-3899 -131 c19 -8 45 -15 56 -15 11 0 17 -3
13 -7 -3 -4 3 -12 15 -19 21 -11 20 -12 -17 -19 -21 -4 -44 -11 -50 -16 -7 -5
-16 -9 -20 -8 -26 4 -74 -2 -74 -10 0 -6 16 -7 37 -4 29 5 35 3 28 -8 -7 -12
-6 -12 7 -1 13 10 19 10 32 -4 10 -9 14 -19 11 -22 -3 -4 -10 0 -15 8 -6 8
-10 10 -10 4 0 -7 -39 -15 -102 -20 l-103 -9 134 -3 c74 -1 139 -6 145 -11 6
-5 34 -12 61 -16 l50 -8 -45 -12 c-34 -9 -41 -14 -27 -20 9 -4 17 -12 17 -18
0 -6 -3 -8 -6 -5 -10 11 -59 -8 -59 -23 0 -8 -10 -18 -22 -24 -24 -10 -37 -56
-20 -67 7 -5 2 -8 -12 -8 -24 0 -24 0 -5 -22 19 -21 19 -21 -4 -16 -12 4 -20
2 -16 -3 3 -5 -6 -9 -20 -9 -16 0 -26 -6 -26 -15 0 -8 -7 -15 -15 -15 -8 0
-15 -4 -15 -9 0 -5 6 -8 13 -7 6 0 14 -3 15 -9 2 -5 8 -16 14 -23 14 -16 3
-27 -29 -27 -40 0 -41 -25 -1 -26 l33 -1 -40 -10 c-22 -6 -43 -15 -46 -20 -3
-5 -15 -10 -27 -11 -12 0 -24 -7 -27 -15 -2 -7 1 -12 8 -11 6 1 32 1 57 0 l45
-2 -45 -13 c-25 -7 -58 -20 -73 -28 l-29 -16 37 0 c43 0 68 -18 46 -32 -31
-18 -251 -36 -251 -20 0 5 -7 7 -16 3 -11 -4 -12 -8 -4 -13 17 -11 -25 -20
-92 -20 -42 0 -59 4 -66 16 -5 10 -18 14 -33 12 l-24 -5 23 -9 24 -10 -26 -12
c-21 -9 -28 -8 -41 5 -13 12 -21 13 -41 5 -13 -7 -24 -16 -24 -22 0 -6 5 -8
10 -5 6 3 10 1 10 -4 0 -6 -8 -11 -17 -11 -14 -1 -12 -4 7 -16 l25 -15 -25 4
c-14 3 -40 8 -58 12 -29 7 -34 5 -39 -15 -5 -19 -11 -22 -44 -17 -45 6 -91
-12 -84 -32 4 -9 -1 -12 -13 -9 -11 3 -28 1 -38 -5 -10 -5 -16 -6 -12 -2 4 4
-3 16 -16 26 -31 24 -44 24 -22 0 16 -17 16 -19 -1 -23 -10 -3 -44 0 -75 7
-31 6 -55 8 -52 3 3 -4 -2 -8 -10 -8 -9 0 -16 5 -16 10 0 6 -5 10 -11 10 -5 0
-8 -4 -5 -9 3 -5 -1 -11 -9 -14 -9 -4 -12 -1 -8 9 3 8 -1 14 -11 14 -9 0 -13
-6 -10 -14 3 -7 -2 -16 -11 -20 -13 -5 -15 -1 -10 15 5 15 4 19 -4 15 -23 -15
-51 -15 -51 0 0 21 -18 17 -25 -6 -4 -11 -11 -18 -16 -14 -6 3 -8 13 -5 21 5
12 1 14 -21 8 -16 -3 -29 -11 -31 -16 -2 -5 -13 -9 -23 -9 -11 0 -18 4 -14 9
3 5 1 12 -5 16 -5 3 -10 1 -10 -5 0 -6 -5 -8 -11 -4 -8 4 -4 11 10 19 20 10
13 13 -63 30 -57 13 -86 24 -86 33 0 7 -4 11 -9 8 -5 -3 -27 1 -49 8 -22 8
-43 11 -47 8 -4 -4 -11 1 -16 11 -6 9 -17 17 -24 17 -8 0 -15 4 -15 10 0 5
-13 8 -28 6 -36 -4 -72 10 -71 26 0 10 2 10 6 1 5 -15 23 -18 23 -5 0 5 -12
14 -26 20 -14 7 -22 17 -19 23 4 6 1 10 -6 8 -32 -4 -49 2 -49 16 0 11 -8 15
-27 13 -23 -2 -29 1 -31 21 -2 15 0 21 7 17 6 -4 11 -2 11 3 0 10 -20 15 -47
12 -6 -1 -14 3 -18 9 -3 5 1 10 9 10 8 0 18 5 22 12 5 8 2 9 -12 4 -16 -6 -15
-3 5 18 13 14 21 32 18 40 -3 8 1 17 11 21 16 6 16 7 0 19 -24 18 -23 23 7 30
14 4 23 11 19 17 -3 6 3 13 15 16 12 3 21 12 21 19 0 8 6 14 13 15 9 0 9 2 0
5 -16 7 15 44 37 44 12 0 13 2 1 9 -11 7 -10 10 5 13 16 3 15 6 -10 20 l-29
15 37 7 c53 10 41 22 -25 25 -17 0 -29 6 -27 12 2 6 7 10 11 10 4 -1 20 5 37
14 16 8 38 15 50 15 11 0 28 8 39 19 20 20 69 33 77 20 3 -5 14 -9 24 -9 10 0
22 -5 26 -12 5 -8 0 -9 -14 -6 -12 4 -22 3 -22 -2 0 -4 19 -12 43 -17 39 -10
40 -11 11 -12 -19 -1 -34 -7 -38 -17 -3 -9 -11 -12 -18 -8 -10 5 -10 4 -2 -5
14 -16 124 -25 124 -11 0 6 9 10 20 10 11 0 20 5 20 10 0 6 -16 10 -35 10 -19
0 -35 5 -35 10 0 6 11 10 25 10 14 0 25 5 25 10 0 6 5 10 10 10 6 0 25 15 43
34 29 30 77 54 102 51 40 -5 92 -19 103 -28 6 -5 12 -6 12 -2 0 4 7 2 15 -5 8
-7 15 -10 15 -7 0 3 16 -1 35 -9 19 -7 48 -14 64 -14 26 0 29 -3 27 -33 -1
-33 0 -34 41 -36 26 -1 43 2 43 9 0 6 -4 8 -10 5 -5 -3 -10 -1 -10 4 0 6 16
11 36 11 19 0 33 -4 29 -9 -5 -10 45 -5 54 5 10 9 -21 22 -40 17 -10 -3 -19 0
-19 6 0 6 14 14 30 18 29 5 30 7 14 24 -17 18 -15 19 44 19 47 0 62 -3 62 -14
0 -8 13 -17 30 -21 16 -4 32 -11 35 -16 7 -10 -42 -32 -55 -24 -5 3 -11 1 -15
-5 -4 -6 5 -10 19 -10 14 0 26 -4 26 -9 0 -6 74 -9 180 -9 98 1 177 5 174 10
-3 4 2 8 10 8 9 0 16 4 16 9 0 15 -60 25 -144 23 -44 -1 -89 1 -100 4 -33 11
60 37 103 29 65 -11 141 -7 157 10 9 8 34 16 57 16 23 1 49 3 57 4 8 1 35 3
60 4 35 2 41 4 25 11 -11 5 -41 12 -67 15 -85 11 -51 23 77 26 82 3 128 8 137
17 15 15 21 15 65 -3z m1418 -91 c61 -4 112 -10 115 -13 11 -13 51 -31 70 -31
11 0 20 -7 20 -15 0 -10 10 -15 28 -15 16 0 31 -3 35 -6 10 -10 -16 -42 -30
-37 -8 3 -13 -3 -13 -16 0 -13 -6 -21 -17 -21 -13 0 -14 -3 -5 -12 18 -18 14
-28 -10 -28 -19 0 -20 -2 -8 -10 12 -8 9 -10 -12 -10 -29 0 -38 -14 -15 -23 6
-3 -14 -6 -45 -6 -32 -1 -58 -5 -58 -11 0 -5 10 -10 23 -10 16 0 23 -6 24 -20
2 -17 -5 -20 -40 -21 -23 0 -60 -4 -82 -8 l-40 -9 40 -2 c22 -1 48 -2 58 -1 9
1 17 -3 17 -8 0 -6 -10 -11 -22 -11 -22 -1 -23 -1 -4 -15 19 -14 18 -15 -17
-15 -23 0 -36 -4 -34 -12 1 -6 -7 -14 -18 -16 -32 -6 -42 -22 -22 -34 17 -9
17 -11 -8 -24 -14 -7 -36 -13 -48 -11 -19 2 -22 -4 -25 -35 -2 -21 -7 -38 -13
-38 -5 0 -9 4 -9 9 0 6 -12 6 -32 0 -43 -12 -51 -11 -42 2 5 8 -6 10 -33 8
-31 -3 -39 -1 -35 9 3 9 13 11 29 7 15 -3 22 -2 19 4 -6 8 -30 11 -110 12 -17
0 -17 2 -2 18 14 16 13 17 -20 18 -39 1 -74 23 -38 24 11 0 -1 9 -30 23 -34
16 -44 26 -35 31 10 7 8 10 -7 16 -13 6 -5 8 26 7 59 -2 90 9 90 32 0 14 -5
17 -22 13 -13 -3 -20 -2 -16 2 4 5 3 14 -4 22 -8 10 -8 17 0 25 15 15 -4 39
-24 31 -8 -3 -14 0 -14 6 0 6 -17 12 -37 13 -37 1 -37 1 -5 5 17 2 32 9 32 14
0 6 14 15 30 21 29 9 29 11 13 24 -11 8 -13 13 -5 14 6 0 12 4 12 10 0 5 -6 7
-13 4 -7 -2 -24 -1 -37 4 -23 8 -22 9 13 16 37 7 77 32 77 48 0 5 -11 8 -25 8
-36 0 -31 16 13 40 39 22 91 22 397 4z"/>
<path d="M8021 5066 c-8 -10 -8 -20 3 -42 10 -18 13 -42 9 -71 -5 -38 -3 -43
18 -52 23 -8 39 -31 53 -75 6 -17 8 -17 31 -2 14 9 25 12 25 6 0 -5 8 -10 18
-10 14 0 18 8 19 34 1 29 -4 36 -30 47 -17 7 -25 15 -19 17 6 2 8 10 5 19 -4
10 -2 14 4 10 12 -8 27 38 17 54 -3 5 0 17 7 25 14 17 15 16 -30 37 -41 21
-114 22 -130 3z"/>
<path d="M8491 4682 c0 -7 -6 -10 -11 -7 -6 4 -23 -1 -38 -11 -26 -18 -31 -20
-52 -23 -5 0 -10 -5 -10 -11 0 -5 8 -6 18 -3 14 6 15 4 4 -9 -9 -11 -10 -18
-2 -23 6 -3 8 -11 5 -16 -14 -22 105 -12 131 12 11 10 28 19 37 19 34 0 9 44
-25 46 -43 3 -47 4 -51 22 -3 9 -5 11 -6 4z"/>
<path d="M3774 6803 c-4 -10 -6 -22 -5 -28 2 -5 -1 -7 -4 -3 -10 9 -47 -10
-41 -21 3 -4 -6 -13 -21 -20 l-26 -12 21 -22 c11 -12 20 -26 20 -32 0 -5 7
-14 16 -20 12 -7 19 -6 26 5 7 12 9 10 7 -8 0 -12 -6 -22 -11 -22 -6 0 -5 -5
2 -12 9 -9 17 -7 33 8 13 10 19 13 15 7 -5 -9 0 -13 13 -13 12 0 21 4 21 8 0
5 14 6 31 4 36 -5 51 11 44 48 -2 13 1 28 8 32 9 6 9 10 -2 17 -7 5 -10 14 -7
20 4 6 1 11 -8 11 -17 0 -76 56 -68 65 3 3 -8 5 -25 5 -20 0 -34 -6 -39 -17z"/>
<path d="M3960 5777 c-14 -17 -19 -18 -57 -7 -34 10 -45 10 -57 1 -21 -18 -88
-51 -102 -51 -7 0 -14 4 -16 8 -4 12 -78 23 -78 11 0 -5 6 -9 14 -9 7 0 20 -7
27 -16 10 -12 25 -15 56 -11 24 2 43 2 43 -2 0 -4 9 -7 20 -8 11 -1 20 2 20 8
0 5 5 9 11 9 15 0 41 28 29 32 -6 2 22 3 60 3 45 0 70 -4 70 -11 0 -7 9 -14
20 -17 11 -3 20 -1 20 4 0 5 20 9 45 9 61 0 59 23 -5 53 -46 22 -101 19 -120
-6z"/>
<path d="M10090 4531 c0 -5 -14 -14 -31 -20 -16 -6 -43 -22 -58 -36 -15 -15
-74 -46 -130 -70 -96 -41 -141 -68 -141 -85 0 -19 47 -17 89 2 25 12 50 21 54
20 4 -1 29 4 55 12 26 8 59 17 74 20 15 4 43 22 62 41 20 19 39 35 44 35 7 0
32 57 32 74 0 5 -7 6 -15 2 -8 -3 -15 -1 -15 4 0 6 -4 10 -10 10 -5 0 -10 -4
-10 -9z"/>
<path d="M10207 3924 c-16 -9 -40 -17 -54 -18 -14 -2 -28 -9 -33 -16 -4 -7
-12 -10 -18 -6 -5 3 -27 -1 -48 -10 -47 -19 -48 -20 -40 -32 7 -12 86 6 86 19
0 5 9 9 20 9 11 0 20 6 20 13 1 6 8 0 16 -16 10 -19 12 -32 5 -45 -7 -13 -6
-23 1 -30 16 -16 58 -15 58 1 0 8 4 7 10 -3 7 -10 10 11 10 68 0 45 -1 82 -2
82 -2 -1 -16 -8 -31 -16z"/>
<path d="M10135 3730 c-3 -5 -14 -10 -25 -10 -10 0 -20 -7 -24 -15 -3 -8 -17
-15 -31 -15 -28 0 -60 -24 -51 -38 3 -5 -7 -8 -22 -6 -26 4 -26 4 3 -6 17 -6
44 -9 60 -8 17 1 36 -1 43 -6 6 -4 17 -4 24 0 8 5 9 0 6 -14 -7 -26 3 -35 28
-25 16 6 16 7 -2 14 -17 7 -17 8 4 8 12 1 21 7 20 14 -2 7 6 11 22 9 18 -2 21
0 12 6 -11 7 -8 11 10 15 19 5 24 14 26 40 2 34 2 35 -38 35 -22 0 -44 3 -49
7 -5 3 -12 1 -16 -5z"/>
<path d="M10230 3611 c0 -11 -5 -23 -11 -26 -15 -10 -200 -55 -222 -55 -17 0
-17 -1 -3 -16 18 -17 13 -34 -10 -34 -8 0 -14 -4 -14 -10 0 -5 12 -10 26 -10
14 0 23 -4 20 -9 -4 -5 12 -5 35 0 25 6 46 6 53 1 6 -5 39 -12 74 -16 l62 -7
0 101 c0 55 -2 100 -5 100 -3 0 -5 -9 -5 -19z"/>
</g>
</svg>
